<svg xmlns="http://www.w3.org/2000/svg" viewBox="0 0 940 420" width="940" height="420" role="img" aria-label="Chart: with 5% daily decay a note's score falls to nearly zero within two months; with a 180-day half-life and a 0.35 floor it still keeps 0.68 after six months"><rect width="940" height="420" fill="#30302E"/><text x="40" y="36" text-anchor="start" font-family="ui-sans-serif, system-ui, -apple-system, Segoe UI, sans-serif" font-size="16" fill="#FAF9F5">How much of its score a note keeps as it ages</text><path d="M80 340H880" stroke="#4A4A45" stroke-width="1"/><text x="68" y="344" text-anchor="end" font-family="ui-monospace, SFMono-Regular, Menlo, monospace" font-size="12" fill="#B0AEA5">0</text><path d="M80 270.0H880" stroke="#4A4A45" stroke-width="1"/><text x="68" y="274.0" text-anchor="end" font-family="ui-monospace, SFMono-Regular, Menlo, monospace" font-size="12" fill="#B0AEA5">0.25</text><path d="M80 200.0H880" stroke="#4A4A45" stroke-width="1"/><text x="68" y="204.0" text-anchor="end" font-family="ui-monospace, SFMono-Regular, Menlo, monospace" font-size="12" fill="#B0AEA5">0.5</text><path d="M80 130.0H880" stroke="#4A4A45" stroke-width="1"/><text x="68" y="134.0" text-anchor="end" font-family="ui-monospace, SFMono-Regular, Menlo, monospace" font-size="12" fill="#B0AEA5">0.75</text><path d="M80 60H880" stroke="#4A4A45" stroke-width="1"/><text x="68" y="64" text-anchor="end" font-family="ui-monospace, SFMono-Regular, Menlo, monospace" font-size="12" fill="#B0AEA5">1</text><path d="M80.0 340v6" stroke="#B0AEA5" stroke-width="1"/><text x="80.0" y="364" text-anchor="middle" font-family="ui-monospace, SFMono-Regular, Menlo, monospace" font-size="12" fill="#B0AEA5">today</text><path d="M145.75342465753425 340v6" stroke="#B0AEA5" stroke-width="1"/><text x="145.75342465753425" y="364" text-anchor="middle" font-family="ui-monospace, SFMono-Regular, Menlo, monospace" font-size="12" fill="#B0AEA5">30 days</text><path d="M277.2602739726027 340v6" stroke="#B0AEA5" stroke-width="1"/><text x="277.2602739726027" y="364" text-anchor="middle" font-family="ui-monospace, SFMono-Regular, Menlo, monospace" font-size="12" fill="#B0AEA5">90</text><path d="M474.52054794520546 340v6" stroke="#B0AEA5" stroke-width="1"/><text x="474.52054794520546" y="364" text-anchor="middle" font-family="ui-monospace, SFMono-Regular, Menlo, monospace" font-size="12" fill="#B0AEA5">180</text><path d="M880.0 340v6" stroke="#B0AEA5" stroke-width="1"/><text x="880.0" y="364" text-anchor="middle" font-family="ui-monospace, SFMono-Regular, Menlo, monospace" font-size="12" fill="#B0AEA5">1 year</text><path d="M80.0 60.0L91.0 63.5L101.9 66.9L112.9 70.2L123.8 73.5L134.8 76.7L145.8 79.9L156.7 82.9L167.7 86.0L178.6 89.0L189.6 91.9L200.5 94.7L211.5 97.5L222.5 100.3L233.4 103.0L244.4 105.7L255.3 108.3L266.3 110.8L277.3 113.3L288.2 115.8L299.2 118.2L310.1 120.5L321.1 122.8L332.1 125.1L343.0 127.3L354.0 129.5L364.9 131.7L375.9 133.8L386.8 135.8L397.8 137.9L408.8 139.9L419.7 141.8L430.7 143.7L441.6 145.6L452.6 147.4L463.6 149.2L474.5 151.0L485.5 152.7L496.4 154.4L507.4 156.1L518.4 157.7L529.3 159.4L540.3 160.9L551.2 162.5L562.2 164.0L573.2 165.5L584.1 166.9L595.1 168.4L606.0 169.8L617.0 171.2L627.9 172.5L638.9 173.8L649.9 175.1L660.8 176.4L671.8 177.7L682.7 178.9L693.7 180.1L704.7 181.3L715.6 182.4L726.6 183.6L737.5 184.7L748.5 185.8L759.5 186.8L770.4 187.9L781.4 188.9L792.3 189.9L803.3 190.9L814.2 191.9L825.2 192.9L836.2 193.8L847.1 194.7L858.1 195.6L869.0 196.5L880.0 197.4" fill="none" stroke="#FAF9F5" stroke-width="2.5" stroke-linecap="round"/><path d="M80.0 60.0L84.4 87.3L88.8 111.9L93.2 134.2L97.5 154.2L101.9 172.4L106.3 188.7L110.7 203.5L115.1 216.8L119.5 228.8L123.8 239.6L128.2 249.4L132.6 258.2L137.0 266.2L141.4 273.4L145.8 279.9L150.1 285.8L154.5 291.0L158.9 295.8L163.3 300.1L167.7 304.0L172.1 307.5L176.4 310.7L180.8 313.5L185.2 316.1L189.6 318.5L194.0 320.6L198.4 322.5L202.7 324.2L207.1 325.7L211.5 327.1L215.9 328.4L220.3 329.5L224.7 330.5L229.0 331.4L233.4 332.3L237.8 333.0L242.2 333.7L246.6 334.3L251.0 334.9L255.3 335.4L259.7 335.8L264.1 336.2L268.5 336.6L272.9 336.9L277.3 337.2L281.6 337.5L286.0 337.7L290.4 338.0L294.8 338.2L299.2 338.3L303.6 338.5L307.9 338.6L312.3 338.8L316.7 338.9L321.1 339.0L325.5 339.1L329.9 339.2L334.2 339.3L338.6 339.3L343.0 339.4L347.4 339.5L351.8 339.5L356.2 339.6L360.5 339.6L364.9 339.6L369.3 339.7L373.7 339.7L378.1 339.7L382.5 339.8L386.8 339.8L391.2 339.8L395.6 339.8L400.0 339.8L404.4 339.9L408.8 339.9L413.2 339.9L417.5 339.9L421.9 339.9L426.3 339.9L430.7 339.9L435.1 339.9L439.5 339.9L443.8 339.9L448.2 339.9L452.6 340.0L457.0 340.0L461.4 340.0L465.8 340.0L470.1 340.0L474.5 340.0L478.9 340.0L483.3 340.0L487.7 340.0L492.1 340.0L496.4 340.0L500.8 340.0L505.2 340.0L509.6 340.0L514.0 340.0L518.4 340.0L522.7 340.0L527.1 340.0L531.5 340.0L535.9 340.0L540.3 340.0L544.7 340.0L549.0 340.0L553.4 340.0L557.8 340.0L562.2 340.0L566.6 340.0L571.0 340.0L575.3 340.0L579.7 340.0L584.1 340.0L588.5 340.0L592.9 340.0L597.3 340.0L601.6 340.0L606.0 340.0L610.4 340.0L614.8 340.0L619.2 340.0L623.6 340.0L627.9 340.0L632.3 340.0L636.7 340.0L641.1 340.0L645.5 340.0L649.9 340.0L654.2 340.0L658.6 340.0L663.0 340.0L667.4 340.0L671.8 340.0L676.2 340.0L680.5 340.0L684.9 340.0L689.3 340.0L693.7 340.0L698.1 340.0L702.5 340.0L706.8 340.0L711.2 340.0L715.6 340.0L720.0 340.0L724.4 340.0L728.8 340.0L733.2 340.0L737.5 340.0L741.9 340.0L746.3 340.0L750.7 340.0L755.1 340.0L759.5 340.0L763.8 340.0L768.2 340.0L772.6 340.0L777.0 340.0L781.4 340.0L785.8 340.0L790.1 340.0L794.5 340.0L798.9 340.0L803.3 340.0L807.7 340.0L812.1 340.0L816.4 340.0L820.8 340.0L825.2 340.0L829.6 340.0L834.0 340.0L838.4 340.0L842.7 340.0L847.1 340.0L851.5 340.0L855.9 340.0L860.3 340.0L864.7 340.0L869.0 340.0L873.4 340.0L877.8 340.0" fill="none" stroke="#D97757" stroke-width="2.5" stroke-linecap="round"/><path d="M80 242.0H880" stroke="#B0AEA5" stroke-width="1" stroke-dasharray="3 6"/><text x="880" y="260.0" text-anchor="end" font-family="ui-monospace, SFMono-Regular, Menlo, monospace" font-size="12" fill="#B0AEA5">floor: 0.35</text><text x="201.5" y="285" text-anchor="start" font-family="ui-sans-serif, system-ui, -apple-system, Segoe UI, sans-serif" font-size="13" fill="#D97757">5% a day: gone in a month or two</text><text x="518.3561643835617" y="143.74540118185658" text-anchor="start" font-family="ui-sans-serif, system-ui, -apple-system, Segoe UI, sans-serif" font-size="13" fill="#FAF9F5">half-life of 180 days, with a floor</text><circle cx="474.52054794520546" cy="151.0" r="4" fill="#FAF9F5"/><text x="482.52054794520546" y="169.0" text-anchor="start" font-family="ui-monospace, SFMono-Regular, Menlo, monospace" font-size="12" fill="#FAF9F5">0.68</text><circle cx="474.52054794520546" cy="339.97262166814323" r="4" fill="#D97757"/><text x="482.52054794520546" y="330" text-anchor="start" font-family="ui-monospace, SFMono-Regular, Menlo, monospace" font-size="12" fill="#D97757">0.0001</text></svg>
